REM DIRINDEX 1\2\6,1\2\7,1\2\8,1\2\9,1\3\10,1\3\11,1\4\12,1\4\13,1\4\14,1\5\15,1\5\16,1\5\17
REM DIRNAME folder01,folder02,folder03,folder04,folder05,folder06,folder07,folder08,folder09,folder10,folder11,folder12,folder13,folder14,folder15,folder16,folder17
TITLE ""
FILE "1400_3_sec06_0534_0549.mp3" MP3
  TRACK 01 AUDIO
    TITLE "0:"
    INDEX 01 00:00:00
  TRACK 02 AUDIO
    TITLE "17:cjc029_5499"
    INDEX 01 00:00:15
  TRACK 03 AUDIO
    TITLE "0:"
    INDEX 01 00:01:46
  TRACK 04 AUDIO
    TITLE "16:cjc029_5500"
    INDEX 01 00:01:48
  TRACK 05 AUDIO
    TITLE "0:"
    INDEX 01 00:02:73
  TRACK 06 AUDIO
    TITLE "17:cjc029_5501"
    INDEX 01 00:03:55
  TRACK 07 AUDIO
    TITLE "0:"
    INDEX 01 00:05:14
  TRACK 08 AUDIO
    TITLE "16:cjc029_5502"
    INDEX 01 00:05:18
  TRACK 09 AUDIO
    TITLE "0:"
    INDEX 01 00:06:45
  TRACK 10 AUDIO
    TITLE "17:cjc029_5503"
    INDEX 01 00:07:27
  TRACK 11 AUDIO
    TITLE "0:"
    INDEX 01 00:09:61
  TRACK 12 AUDIO
    TITLE "16:cjc029_5504"
    INDEX 01 00:09:69
  TRACK 13 AUDIO
    TITLE "0:"
    INDEX 01 00:10:66
  TRACK 14 AUDIO
    TITLE "17:cjc029_5505"
    INDEX 01 00:11:48
  TRACK 15 AUDIO
    TITLE "0:"
    INDEX 01 00:13:08
  TRACK 16 AUDIO
    TITLE "16:cjc029_5506"
    INDEX 01 00:13:12
  TRACK 17 AUDIO
    TITLE "0:"
    INDEX 01 00:14:39
  TRACK 18 AUDIO
    TITLE "17:cjc029_5507"
    INDEX 01 00:15:23
  TRACK 19 AUDIO
    TITLE "0:"
    INDEX 01 00:16:57
  TRACK 20 AUDIO
    TITLE "16:cjc029_5508"
    INDEX 01 00:16:61
  TRACK 21 AUDIO
    TITLE "0:"
    INDEX 01 00:17:72
  TRACK 22 AUDIO
    TITLE "17:cjc029_5509"
    INDEX 01 00:18:58
  TRACK 23 AUDIO
    TITLE "0:"
    INDEX 01 00:19:63
  TRACK 24 AUDIO
    TITLE "16:cjc029_5510"
    INDEX 01 00:19:69
  TRACK 25 AUDIO
    TITLE "0:"
    INDEX 01 00:20:73
  TRACK 26 AUDIO
    TITLE "17:cjc029_5511"
    INDEX 01 00:21:53
  TRACK 27 AUDIO
    TITLE "0:"
    INDEX 01 00:22:54
  TRACK 28 AUDIO
    TITLE "16:cjc029_5512"
    INDEX 01 00:22:70
  TRACK 29 AUDIO
    TITLE "0:"
    INDEX 01 00:23:67
  TRACK 30 AUDIO
    TITLE "17:cjc029_5513"
    INDEX 01 00:24:53
  TRACK 31 AUDIO
    TITLE "0:"
    INDEX 01 00:26:03
  TRACK 32 AUDIO
    TITLE "16:cjc029_5514"
    INDEX 01 00:26:07
  TRACK 33 AUDIO
    TITLE "0:"
    INDEX 01 00:27:16
  TRACK 34 AUDIO
    TITLE "17:cjc029_5515"
    INDEX 01 00:28:00
  TRACK 35 AUDIO
    TITLE "0:"
    INDEX 01 00:29:15
  TRACK 36 AUDIO
    TITLE "16:cjc029_5516"
    INDEX 01 00:29:23
  TRACK 37 AUDIO
    TITLE "0:"
    INDEX 01 00:30:46
  TRACK 38 AUDIO
    TITLE "17:cjc029_5517"
    INDEX 01 00:31:31
  TRACK 39 AUDIO
    TITLE "0:"
    INDEX 01 00:32:48
  TRACK 40 AUDIO
    TITLE "16:cjc029_5518"
    INDEX 01 00:32:54
  TRACK 41 AUDIO
    TITLE "0:"
    INDEX 01 00:34:08
  TRACK 42 AUDIO
    TITLE "17:cjc029_5519"
    INDEX 01 00:34:67
  TRACK 43 AUDIO
    TITLE "0:"
    INDEX 01 00:36:03
  TRACK 44 AUDIO
    TITLE "16:cjc029_5520"
    INDEX 01 00:36:17
  TRACK 45 AUDIO
    TITLE "0:"
    INDEX 01 00:37:14
  TRACK 46 AUDIO
    TITLE "17:cjc029_5521"
    INDEX 01 00:37:73
  TRACK 47 AUDIO
    TITLE "0:"
    INDEX 01 00:40:05
  TRACK 48 AUDIO
    TITLE "16:cjc029_5522"
    INDEX 01 00:40:13
  TRACK 49 AUDIO
    TITLE "0:"
    INDEX 01 00:41:22
  TRACK 50 AUDIO
    TITLE "17:cjc029_5523"
    INDEX 01 00:42:00
  TRACK 51 AUDIO
    TITLE "0:"
    INDEX 01 00:44:12
  TRACK 52 AUDIO
    TITLE "16:cjc029_5524"
    INDEX 01 00:44:18
  TRACK 53 AUDIO
    TITLE "0:"
    INDEX 01 00:45:22
  TRACK 54 AUDIO
    TITLE "17:cjc029_5525"
    INDEX 01 00:46:07
  TRACK 55 AUDIO
    TITLE "0:"
    INDEX 01 00:47:28
  TRACK 56 AUDIO
    TITLE "16:cjc029_5526"
    INDEX 01 00:47:36
  TRACK 57 AUDIO
    TITLE "0:"
    INDEX 01 00:48:61
  TRACK 58 AUDIO
    TITLE "17:cjc029_5527"
    INDEX 01 00:49:45
  TRACK 59 AUDIO
    TITLE "0:"
    INDEX 01 00:50:48
  TRACK 60 AUDIO
    TITLE "16:cjc029_5528"
    INDEX 01 00:50:52
  TRACK 61 AUDIO
    TITLE "0:"
    INDEX 01 00:51:65
  TRACK 62 AUDIO
    TITLE "17:cjc029_5529"
    INDEX 01 00:52:49
  TRACK 63 AUDIO
    TITLE "0:"
    INDEX 01 00:53:49
  TRACK 64 AUDIO
    TITLE "16:cjc029_5530"
    INDEX 01 00:53:57
  TRACK 65 AUDIO
    TITLE "0:"
    INDEX 01 00:54:62
